<svg width="200" height="125" viewBox="0 0 200 125" xmlns="http://www.w3.org/2000/svg" fill="#F0EBE3">
  <path d="M62.5,0 A62.5,62.5 0 0 0 62.5,125 Z" />
  
  <path d="M70.3,56.5 L192.5,10 L195,20.5 L73.5,61.5 Z" />
  <path d="M70.3,68.5 L195,115 L192.5,125 L68,73.5 Z" />
  <path d="M72.2,44.2 L178.5, -5 L182.5, 5 L74.5, 50.5 Z" />
  <path d="M72.2,80.8 L182.5,120 L178.5,130 L74.5,74.5 Z" />
  <path d="M74,33 L160, -20 L165, -10 L75, 39 Z" />
  <path d="M74,92 L165,135 L160,145 L75,86 Z" />
  <path d="M75,62.5 L200,62.5 L200,62.5 L75,62.5 Z" />
</svg>